<svg width="28" height="28" viewBox="0 0 28 28" fill="none" xmlns="http://www.w3.org/2000/svg">
<path d="M13.9531 25.9062C20.5508 25.9062 25.9062 20.5508 25.9062 13.9531C25.9062 7.35547 20.5508 2 13.9531 2C7.35547 2 2 7.35547 2 13.9531C2 20.5508 7.35547 25.9062 13.9531 25.9062ZM13.9531 23.9141C8.44531 23.9141 3.99219 19.4609 3.99219 13.9531C3.99219 8.44531 8.44531 3.99219 13.9531 3.99219C19.4609 3.99219 23.9141 8.44531 23.9141 13.9531C23.9141 19.4609 19.4609 23.9141 13.9531 23.9141Z" fill="black"/>
<path d="M17.6094 16.8594C18.125 16.8594 18.4766 16.4609 18.4766 15.9219V10.3906C18.4766 9.69922 18.0898 9.42969 17.4922 9.42969H11.9375C11.3867 9.42969 11.0352 9.76953 11.0352 10.2852C11.0352 10.8008 11.3984 11.1406 11.9609 11.1406H14.0938L15.8281 10.9531L14 12.6523L9.67578 16.9766C9.51172 17.1406 9.39453 17.375 9.39453 17.6094C9.39453 18.1367 9.74609 18.4766 10.2617 18.4766C10.543 18.4766 10.7539 18.3711 10.9297 18.207L15.2422 13.8945L16.9297 12.0898L16.7539 13.918V15.9453C16.7539 16.4961 17.0938 16.8594 17.6094 16.8594Z" fill="black"/>
</svg>
