<svg width="28" height="28" viewBox="0 0 28 28" fill="none" xmlns="http://www.w3.org/2000/svg">
<path d="M2 11.3516C2 16.5078 6.19531 20.7031 11.3516 20.7031C13.3906 20.7031 15.2539 20.0469 16.7891 18.9453L22.5547 24.7227C22.8242 24.9922 23.1758 25.1211 23.5508 25.1211C24.3477 25.1211 24.8984 24.5234 24.8984 23.7383C24.8984 23.3633 24.7578 23.0234 24.5117 22.7773L18.7812 17.0117C19.9883 15.4414 20.7031 13.4844 20.7031 11.3516C20.7031 6.19531 16.5078 2 11.3516 2C6.19531 2 2 6.19531 2 11.3516ZM4.00391 11.3516C4.00391 7.29688 7.29688 4.00391 11.3516 4.00391C15.4062 4.00391 18.6992 7.29688 18.6992 11.3516C18.6992 15.4062 15.4062 18.6992 11.3516 18.6992C7.29688 18.6992 4.00391 15.4062 4.00391 11.3516Z" fill="black"/>
</svg>
