<svg width="28" height="28" viewBox="0 0 28 28" fill="none" xmlns="http://www.w3.org/2000/svg">
<path d="M1 23.707C1 24.2344 1.43359 24.6445 1.9375 24.6445H26.1953C26.7109 24.6445 27.1445 24.2344 27.1445 23.707C27.1445 23.1914 26.7109 22.7695 26.1953 22.7695H1.9375C1.43359 22.7695 1 23.1914 1 23.707Z" fill="black"/>
<path d="M21.1445 19.793C21.1445 20.4492 21.5547 20.8359 22.2344 20.8359H24.9414C25.6094 20.8359 26.0312 20.4492 26.0312 19.793V12.0469C26.0312 11.3906 25.6094 10.9922 24.9414 10.9922H22.2344C21.5547 10.9922 21.1445 11.3906 21.1445 12.0469V19.793Z" fill="black"/>
<path d="M14.793 19.793C14.793 20.4492 15.2148 20.8359 15.8828 20.8359H18.5898C19.2695 20.8359 19.6914 20.4492 19.6914 19.793V6.71483C19.6914 6.05858 19.2695 5.67188 18.5898 5.67188H15.8828C15.2148 5.67188 14.793 6.05858 14.793 6.71483V19.793Z" fill="black"/>
<path d="M8.45312 19.793C8.45312 20.4492 8.86328 20.8359 9.53125 20.8359H12.25C12.918 20.8359 13.3398 20.4492 13.3398 19.793V4.04297C13.3398 3.38672 12.918 3 12.25 3H9.53125C8.86328 3 8.45312 3.38672 8.45312 4.04297V19.793Z" fill="black"/>
<path d="M2.10156 19.793C2.10156 20.4492 2.52344 20.8359 3.19141 20.8359H5.89844C6.57812 20.8359 7 20.4492 7 19.793V9.42188C7 8.77734 6.57812 8.37891 5.89844 8.37891H3.19141C2.52344 8.37891 2.10156 8.77734 2.10156 9.42188V19.793Z" fill="black"/>
</svg>
