<svg width="28" height="28" viewBox="0 0 28 28" fill="none" xmlns="http://www.w3.org/2000/svg">
<path d="M25.9062 13.9531C25.9062 20.5391 20.5508 25.9062 13.9531 25.9062C7.36719 25.9062 2 20.5391 2 13.9531C2 7.35547 7.36719 2 13.9531 2C20.5508 2 25.9062 7.35547 25.9062 13.9531ZM17.8438 13.9414C17.8438 14.9141 18.6289 15.6992 19.6016 15.6992C20.5508 15.6992 21.3477 14.9141 21.3477 13.9414C21.3477 12.9688 20.5508 12.1836 19.6016 12.1836C18.6289 12.1836 17.8438 12.9688 17.8438 13.9414ZM12.1953 13.9414C12.1953 14.9141 12.9805 15.6992 13.9531 15.6992C14.9258 15.6992 15.7109 14.9141 15.7109 13.9414C15.7109 12.9688 14.9258 12.1836 13.9531 12.1836C12.9805 12.1836 12.1953 12.9688 12.1953 13.9414ZM6.55859 13.9414C6.55859 14.9141 7.35547 15.6992 8.31641 15.6992C9.27734 15.6992 10.0625 14.9141 10.0625 13.9414C10.0625 12.9688 9.26562 12.1836 8.31641 12.1836C7.35547 12.1836 6.55859 12.9688 6.55859 13.9414Z" fill="black"/>
</svg>
