<svg width="28" height="28" viewBox="0 0 28 28" fill="none" xmlns="http://www.w3.org/2000/svg">
<g clip-path="url(#clip0_30965_197)">
<path d="M10.8281 24.7578V17.8672C10.8281 17.3281 11.1914 16.9766 11.7305 16.9766H16.2656C16.8164 16.9766 17.1562 17.3281 17.1562 17.8672V24.7578H10.8281ZM3.65625 24.0664C3.65625 25.6953 4.64062 26.6445 6.29297 26.6445H21.7031C23.3555 26.6445 24.3281 25.6953 24.3281 24.0664V14.7617L14.6953 6.6875C14.25 6.3125 13.7227 6.32422 13.2891 6.6875L3.65625 14.7617V24.0664ZM1.00781 14.5156C1.33594 14.5156 1.60547 14.3398 1.85156 14.1406L13.582 4.28516C13.7109 4.17969 13.8633 4.12109 13.9922 4.12109C14.1328 4.12109 14.2734 4.17969 14.4023 4.28516L26.1445 14.1406C26.3789 14.3398 26.6484 14.5156 26.9766 14.5156C27.6094 14.5156 27.9844 14.0586 27.9844 13.5781C27.9844 13.3086 27.8789 13.0273 27.6094 12.8164L15.3984 2.5625C14.9531 2.1875 14.4727 2 13.9922 2C13.5117 2 13.0312 2.1875 12.5859 2.5625L0.375 12.8164C0.117188 13.0273 0 13.3086 0 13.5781C0 14.0586 0.375 14.5156 1.00781 14.5156Z" fill="black"/>
</g>
<defs>
<clipPath id="clip0_30965_197">
<rect width="28" height="28" fill="white"/>
</clipPath>
</defs>
</svg>
