<svg width="33" height="28" viewBox="0 0 33 28" fill="none" xmlns="http://www.w3.org/2000/svg">
<path d="M13.914 17.2976C11.9673 18.9899 10.8711 21.1529 10.8711 23.0938C10.8711 23.6498 10.9836 24.1862 11.2521 24.6523H2.30469C0.828117 24.6523 0.242188 24.0664 0.242188 23C0.242188 19.7656 3.54688 15.8633 8.83203 15.8633C10.8351 15.8633 12.5537 16.4238 13.914 17.2976ZM12.9219 9.55859C12.9219 12.1016 11.0234 14.0703 8.84375 14.0703C6.65234 14.0703 4.75391 12.1016 4.75391 9.58203C4.75391 7.07422 6.66406 5.17578 8.84375 5.17578C11.0117 5.17578 12.9219 7.02734 12.9219 9.55859Z" fill="black" fill-opacity="0.85"/>
<path d="M22.332 13.8008C24.8516 13.8008 27.0195 11.5508 27.0195 8.62109C27.0195 5.72656 24.8398 3.58203 22.332 3.58203C19.8242 3.58203 17.6445 5.77344 17.6445 8.64453C17.6445 11.5508 19.8125 13.8008 22.332 13.8008ZM14.9609 24.6523H29.6914C31.5312 24.6523 32.1875 24.125 32.1875 23.0938C32.1875 20.0703 28.4023 15.8984 22.3203 15.8984C16.25 15.8984 12.4648 20.0703 12.4648 23.0938C12.4648 24.125 13.1211 24.6523 14.9609 24.6523Z" fill="black" fill-opacity="0.85"/>
</svg>
