<svg width="28" height="28" viewBox="0 0 28 28" fill="none" xmlns="http://www.w3.org/2000/svg">
<path d="M27.6328 6.63281V20.9531C27.6328 23.3672 26.4141 24.5742 23.9531 24.5742H3.67969C1.23047 24.5742 0 23.3672 0 20.9531V6.63281C0 4.21875 1.23047 3 3.67969 3H23.9531C26.4141 3 27.6328 4.21875 27.6328 6.63281ZM3.79688 18.5742C3.79688 18.9258 3.98438 19.1836 4.37109 19.1836H13.5234C13.9102 19.1836 14.0977 18.9258 14.0977 18.5742C14.0977 17.4727 12.4453 14.6367 8.94141 14.6367C5.4375 14.6367 3.79688 17.4727 3.79688 18.5742ZM16.582 17.6602C16.1602 17.6602 15.8438 17.9883 15.8438 18.3984C15.8438 18.7969 16.1602 19.1016 16.582 19.1016H22.9805C23.3906 19.1016 23.707 18.7969 23.707 18.3984C23.707 17.9883 23.3906 17.6602 22.9805 17.6602H16.582ZM16.582 13.0781C16.1602 13.0781 15.8438 13.3828 15.8438 13.7812C15.8438 14.1914 16.1602 14.5195 16.582 14.5195H22.9805C23.3906 14.5195 23.707 14.1914 23.707 13.7812C23.707 13.3828 23.3906 13.0781 22.9805 13.0781H16.582ZM6.375 11.0156C6.375 12.6211 7.52344 13.8164 8.94141 13.8164C10.3711 13.8281 11.5078 12.6211 11.5078 11.0156C11.5078 9.51562 10.3711 8.27344 8.94141 8.27344C7.52344 8.27344 6.375 9.51562 6.375 11.0156ZM16.582 8.48438C16.1602 8.48438 15.8438 8.80078 15.8438 9.19922C15.8438 9.60938 16.1602 9.92578 16.582 9.92578H22.9805C23.3906 9.92578 23.707 9.60938 23.707 9.19922C23.707 8.80078 23.3906 8.48438 22.9805 8.48438H16.582Z" fill="black"/>
</svg>
